<svg width="18" height="18" viewBox="0 0 18 18" fill="none" xmlns="http://www.w3.org/2000/svg">
<path d="M16.3052 18C16.128 18 15.9618 18 15.7846 18C15.7846 18 4.464 18 0.498462 18C0.110769 18 0.0443075 17.8813 0.0110768 17.7429C-1.69185e-07 17.7033 0 17.644 0 17.5846C0 11.8582 0 6.14176 0 0.415386C0 0.108792 0.110769 0 0.454154 0H6.96738C10.4898 0 14.0123 0 17.5237 0C17.8892 0 18 0.0890104 18 0.435164V17.4758C18 17.5253 18 17.5846 18 17.6341C18 17.8813 17.8782 17.9901 17.6123 17.9901C17.3575 17.9901 17.0917 17.9901 16.8369 17.9901C16.6486 18 16.4714 18 16.3052 18ZM14.6215 16.4275C14.6991 16.4275 14.7434 16.4868 14.7434 16.6055C14.7434 16.7143 14.7434 16.833 14.7434 16.9418V17.3769H17.2911V0.623079H14.7434V1.07802C14.7434 1.1967 14.7434 1.31538 14.7434 1.42418C14.7434 1.47363 14.7323 1.58242 14.6215 1.58242C14.5108 1.58242 14.4997 1.46374 14.4997 1.43407C14.4997 1.31538 14.4997 1.1967 14.4997 1.07802V0.623079H11.7305V3.49121H12.0406C12.1071 3.49121 12.3397 3.49121 12.3951 3.49121C12.4615 3.49121 12.528 3.49121 12.5945 3.49121C12.672 3.49121 12.7495 3.53077 12.7495 3.6C12.7495 3.6989 12.6166 3.70879 12.5834 3.70879C12.5169 3.70879 12.4394 3.70879 12.3729 3.70879H12.0295H11.7194V14.3209H12.528C12.672 14.3209 12.7495 14.3604 12.7495 14.4198C12.7495 14.5187 12.6055 14.5286 12.5391 14.5286C12.4726 14.5286 12.4172 14.5286 12.3508 14.5286H12.0295H11.7194V17.3868H14.4886V16.9418C14.4886 16.8231 14.4886 16.7143 14.4886 16.6055C14.4997 16.5264 14.5218 16.4374 14.6215 16.4275ZM0.697846 17.3868H11.4535V14.5286H11.1434C11.0769 14.5286 11.0105 14.5286 10.9551 14.5286C10.8997 14.5286 10.8443 14.5286 10.7778 14.5286C10.7114 14.5286 10.6449 14.5286 10.5785 14.5286C10.4898 14.5286 10.4234 14.4791 10.4234 14.4198C10.4234 14.3209 10.5563 14.3209 10.5895 14.3209C10.656 14.3209 10.7335 14.3209 10.8 14.3209H11.1434H11.4535V3.6989H10.6671C10.512 3.6989 10.4345 3.65934 10.4345 3.59011C10.4345 3.55055 10.4455 3.54066 10.4566 3.53077C10.4898 3.5011 10.5563 3.48132 10.6892 3.47143H11.4757V0.613188H0.697846V17.3868Z" fill="#9D9D9C"/>
<path d="M2.93471 9.50415C2.63563 9.50415 2.38086 9.26679 2.38086 9.00964C2.38086 8.88107 2.43624 8.7525 2.54701 8.66349C2.65778 8.56459 2.79071 8.51514 2.93471 8.51514C3.24486 8.52503 3.48855 8.7525 3.48855 9.01953C3.48855 9.27668 3.23378 9.50415 2.93471 9.50415Z" fill="#9D9D9C"/>
<path d="M4.78376 5.24183C5.80284 4.33194 6.82191 3.42205 7.82991 2.51216C7.8853 2.46271 7.90745 2.39348 7.96284 2.32425C7.90745 2.2649 7.86314 2.17589 7.80776 2.166C7.71914 2.15611 7.5973 2.17589 7.54191 2.23523C6.51176 3.14512 5.49268 4.06491 4.4736 4.9748C4.36284 5.0737 4.3296 5.18249 4.44037 5.28139C4.55114 5.38029 4.67299 5.33084 4.78376 5.24183Z" fill="#9D9D9C"/>
<path d="M6.19121 4.69783C6.18013 4.77696 6.15798 4.89564 6.20229 4.9352C6.25767 4.98465 6.37952 4.97476 6.46813 4.96487C6.51244 4.96487 6.55675 4.89564 6.60106 4.86597C7.56475 4.00553 8.53952 3.1352 9.50321 2.27476C9.5586 2.22531 9.61398 2.18575 9.63613 2.12641C9.71367 1.99783 9.59183 1.85938 9.38136 1.85938C9.33706 1.88905 9.25952 1.9286 9.20413 1.98795C8.22936 2.85828 7.2546 3.7286 6.2909 4.59893C6.25767 4.63849 6.20229 4.66816 6.19121 4.69783Z" fill="#9D9D9C"/>
</svg>
