<svg width="18" height="18" viewBox="0 0 18 18" fill="none" xmlns="http://www.w3.org/2000/svg">
<path d="M0.593933 18H1.49441C1.52315 18 1.54231 17.9904 1.56147 17.9809V17.9904L7.33795 16.5447C7.60617 16.4777 7.79776 16.2383 7.79776 15.9606V3.81064C7.79776 3.55213 7.63491 3.33191 7.39542 3.24574L3.25705 1.8H14.7334L10.595 3.24574C10.3555 3.33191 10.1927 3.5617 10.1927 3.81064V15.9606C10.1927 16.2383 10.3842 16.4777 10.6525 16.5447L16.429 17.9904V17.9809C16.4481 17.9904 16.4769 18 16.496 18H17.3965C17.7318 18 18 17.7319 18 17.3968V1.19681C18 0.53617 17.4635 0 16.8026 0H1.19745C0.536456 0 0 0.53617 0 1.19681V17.3968C0 17.7319 0.268227 18 0.593933 18ZM7.20383 15.9606L1.80096 17.3106V1.92447L7.20383 3.81064V15.9606ZM10.8057 3.81064L16.2086 1.92447V17.3202L10.8057 15.9702V3.81064ZM0.593933 1.19681C0.593933 0.861702 0.862161 0.593618 1.19745 0.593618H16.8026C17.1378 0.593618 17.4061 0.861702 17.4061 1.19681V17.3968H16.8026V1.8C16.8026 1.54149 16.6397 1.32128 16.4098 1.23511L16.4002 1.21596L16.3715 1.22553C16.314 1.20638 16.2565 1.19681 16.199 1.19681H1.80096C1.74348 1.19681 1.686 1.20638 1.62853 1.22553L1.59979 1.21596L1.59021 1.23511C1.3603 1.32128 1.19745 1.54149 1.19745 1.8V17.3968H0.593933V1.19681Z" fill="#9D9D9C"/>
<path d="M5.72834 9.81849C6.18095 9.81849 6.54652 9.45403 6.54652 9.00031C6.54652 8.54659 6.18095 8.18213 5.72834 8.18213C5.27573 8.18213 4.91016 8.54659 4.91016 9.00031C4.91016 9.45403 5.27573 9.81849 5.72834 9.81849ZM5.72834 8.65072C5.87631 8.65072 5.99816 8.81436 5.99816 9.00031C5.99816 9.18626 5.8676 9.3499 5.72834 9.3499C5.58907 9.3499 5.45851 9.18626 5.45851 9.00031C5.45851 8.81436 5.58037 8.65072 5.72834 8.65072Z" fill="#9D9D9C"/>
<path d="M12.2723 8.18213C11.8197 8.18213 11.4541 8.54659 11.4541 9.00031C11.4541 9.45403 11.8197 9.81849 12.2723 9.81849C12.7249 9.81849 13.0905 9.45403 13.0905 9.00031C13.0905 8.54659 12.7249 8.18213 12.2723 8.18213ZM12.2723 9.34246C12.1243 9.34246 12.0025 9.17882 12.0025 8.99287C12.0025 8.80692 12.133 8.64328 12.2723 8.64328C12.4203 8.64328 12.5421 8.80692 12.5421 8.99287C12.5421 9.17882 12.4203 9.34246 12.2723 9.34246Z" fill="#9D9D9C"/>
</svg>
