<svg width="18" height="18" viewBox="0 0 18 18" fill="none" xmlns="http://www.w3.org/2000/svg">
<path d="M0 17.616C0 11.8752 0 6.1248 0 0.384C0.1248 0.2592 0.2592 0.1248 0.384 0C6.1248 0 11.8752 0 17.616 0C17.7408 0.1248 17.8752 0.2592 18 0.384C18 6.1152 18 11.8464 18 17.5776C17.9328 17.7792 17.7792 17.8944 17.616 18C11.8752 18 6.1248 18 0.384 18C0.2592 17.8752 0.1248 17.7504 0 17.616ZM17.4336 17.4336C17.4336 11.7984 17.4336 6.1824 17.4336 0.576C11.808 0.576 6.192 0.576 0.576 0.576C0.576 6.2016 0.576 11.8176 0.576 17.4336C6.192 17.4336 11.808 17.4336 17.4336 17.4336Z" fill="#9D9D9C"/>
<path d="M1.21923 8.98547C1.21923 6.59507 1.21923 4.20467 1.21923 1.82387C1.21923 1.42068 1.42083 1.21907 1.82403 1.21907C6.60483 1.21907 11.3856 1.21907 16.1664 1.20947C16.5408 1.20947 16.7904 1.48787 16.7904 1.82387C16.7808 6.61427 16.7808 11.3951 16.7808 16.1855C16.7808 16.5791 16.5696 16.7807 16.176 16.7807C11.3952 16.7807 6.62403 16.7807 1.84323 16.7903C1.44963 16.7903 1.19043 16.5311 1.19043 16.1471C1.21923 13.7663 1.21923 11.3759 1.21923 8.98547ZM8.72643 1.76627C6.39363 1.76627 4.08003 1.76627 1.76643 1.76627C1.76643 6.60467 1.76643 11.4239 1.76643 16.2431C4.08963 16.2431 6.40323 16.2431 8.72643 16.2431C8.72643 11.4143 8.72643 6.59507 8.72643 1.76627ZM9.27363 16.2431C11.6064 16.2431 13.92 16.2431 16.2336 16.2431C16.2336 11.4047 16.2336 6.58547 16.2336 1.76627C13.9104 1.76627 11.5968 1.76627 9.27363 1.76627C9.27363 6.58547 9.27363 11.4047 9.27363 16.2431Z" fill="#9D9D9C"/>
<path d="M3.52383 11.357C3.42783 11.261 3.31263 11.1554 3.20703 11.0498C4.83903 9.41781 6.47103 7.78581 8.10303 6.15381C8.19903 6.25941 8.30463 6.37461 8.39103 6.48021C6.78783 8.09301 5.15583 9.72501 3.52383 11.357Z" fill="#9D9D9C"/>
<path d="M2.62988 9.11022C2.62988 8.76462 2.62988 8.41901 2.62988 8.07341C2.62988 7.83341 2.76428 7.73742 3.00428 7.80462C3.21548 7.87182 3.42668 7.94862 3.63788 8.01582C3.79148 8.06382 3.85868 8.15021 3.85868 8.32301C3.84908 8.86061 3.84908 9.40781 3.85868 9.94541C3.85868 10.099 3.80108 10.195 3.64748 10.243C3.41708 10.3198 3.19628 10.3966 2.96588 10.4638C2.77388 10.5214 2.62988 10.4158 2.62988 10.2142C2.62988 9.83982 2.62988 9.47502 2.62988 9.11022ZM3.12908 9.86861C3.36908 9.82061 3.36908 9.82061 3.36908 9.61901C3.36908 9.29261 3.36908 8.96622 3.36908 8.63982C3.36908 8.42862 3.34988 8.40942 3.12908 8.39982C3.12908 8.87982 3.12908 9.36942 3.12908 9.86861Z" fill="#9D9D9C"/>
<path d="M4.5017 8.91863C4.3961 8.81303 4.2905 8.69783 4.2041 8.60183C5.1737 7.63223 6.1529 6.65303 7.1321 5.67383C7.2281 5.76983 7.3337 5.87543 7.4393 5.98103C6.4601 6.95063 5.4905 7.92983 4.5017 8.91863Z" fill="#9D9D9C"/>
<path d="M4.4921 11.8464C4.3961 11.7504 4.2905 11.6448 4.2041 11.5488C5.0969 10.656 5.9897 9.76324 6.8921 8.86084C6.9785 8.95684 7.0841 9.07204 7.1705 9.16804C6.2969 10.0416 5.3945 10.944 4.4921 11.8464Z" fill="#9D9D9C"/>
<path d="M9.88728 11.357C9.80088 11.261 9.68568 11.1554 9.58008 11.0498C11.2121 9.41781 12.8441 7.78581 14.4761 6.15381C14.5721 6.25941 14.6777 6.37461 14.7641 6.47061C13.1513 8.08341 11.5193 9.71541 9.88728 11.357Z" fill="#9D9D9C"/>
<path d="M15.3694 9.1199C15.3694 9.4751 15.3694 9.8207 15.3694 10.1759C15.3694 10.4159 15.235 10.5215 15.0046 10.4447C14.7838 10.3775 14.5726 10.3007 14.3518 10.2335C14.2078 10.1855 14.1406 10.0991 14.1406 9.9551C14.1406 9.4079 14.1406 8.8511 14.1406 8.3039C14.1406 8.1503 14.2078 8.0639 14.3422 8.0255C14.563 7.9583 14.7838 7.8719 15.0046 7.8047C15.2158 7.7375 15.3598 7.8335 15.3598 8.0639C15.379 8.4095 15.3694 8.7647 15.3694 9.1199ZM14.8702 9.8687C14.8702 9.3695 14.8702 8.8799 14.8702 8.3903C14.6302 8.4383 14.6302 8.4383 14.6302 8.6591C14.6302 8.9759 14.6302 9.2927 14.6302 9.6095C14.6398 9.8207 14.6398 9.8207 14.8702 9.8687Z" fill="#9D9D9C"/>
<path d="M10.8669 8.89926C10.7805 8.81286 10.6749 8.69766 10.5693 8.59206C11.5389 7.62246 12.5181 6.64326 13.4973 5.66406C13.5837 5.76006 13.6893 5.88486 13.7757 5.98086C12.8253 6.94086 11.8461 7.92006 10.8669 8.89926Z" fill="#9D9D9C"/>
<path d="M13.2665 8.86084C13.3625 8.95684 13.4681 9.06244 13.5737 9.16804C12.6809 10.0608 11.7881 10.9536 10.8857 11.856C10.7897 11.7504 10.6841 11.6352 10.5977 11.5392C11.4713 10.656 12.3641 9.75364 13.2665 8.86084Z" fill="#9D9D9C"/>
</svg>
