<svg width="32" height="26" viewBox="0 0 32 26" fill="none" xmlns="http://www.w3.org/2000/svg">
<path d="M30.1694 4.71569C30.0086 3.987 29.6809 3.31935 29.2197 2.78016C28.7584 2.24098 28.1798 1.84937 27.5423 1.64487C25.2132 1 15.8965 1 15.8965 1C15.8965 1 6.57992 1 4.25076 1.70629C3.61329 1.91078 3.03469 2.3024 2.57342 2.84158C2.11216 3.38076 1.78455 4.04842 1.62369 4.77711C1.19742 7.45726 0.988906 10.1761 1.00077 12.8994C0.985579 15.6433 1.1941 18.3828 1.62369 21.0832C1.80103 21.7892 2.13598 22.4315 2.59617 22.9479C3.05637 23.4643 3.62625 23.8374 4.25076 24.0312C6.57992 24.7375 15.8965 24.7374 15.8965 24.7374C15.8965 24.7374 25.2132 24.7375 27.5423 24.0312C28.1798 23.8267 28.7584 23.4351 29.2197 22.8959C29.6809 22.3567 30.0086 21.689 30.1694 20.9603C30.5924 18.3004 30.8009 15.6023 30.7923 12.8994C30.8075 10.1556 30.599 7.41602 30.1694 4.71569Z" stroke="#3C3C3B" stroke-width="1.5" stroke-linecap="round" stroke-linejoin="round"/>
<path d="M12.8496 17.9205L20.636 12.8997L12.8496 7.87891V17.9205Z" stroke="#3C3C3B" stroke-width="1.5" stroke-linecap="round" stroke-linejoin="round"/>
</svg>
