<svg width="294" height="44" viewBox="0 0 294 44" fill="none" xmlns="http://www.w3.org/2000/svg">
<path d="M82.0154 8.95894C81.83 8.68083 79.8832 7.75381 79.4594 7.62138C78.89 7.43597 78.6516 7.35651 78.3337 6.90624C78.0556 6.50894 77.7378 6.11164 77.2478 5.92623C77.0756 5.86002 76.9035 5.82029 76.7313 5.7938C76.5989 5.76732 76.4664 5.74084 76.3473 5.70111C76.1354 5.62165 75.9235 5.44948 75.7248 5.29056L75.6321 5.2111C75.4202 5.05219 75.2878 4.84029 75.1289 4.61516C75.1024 4.57543 75.0627 4.50921 75.0229 4.42975C74.864 4.12515 74.6919 3.82057 74.4137 3.78084H74.4005H74.3873C74.3873 3.78084 74.3873 3.78084 74.374 3.78084H74.3608C74.0164 3.75435 73.6854 4.05894 73.3808 4.32381C73.3013 4.39002 73.2219 4.45624 73.1689 4.49597C73.0629 4.57543 72.9173 4.6284 72.7451 4.69461C72.6127 4.74759 72.467 4.80056 72.3478 4.86678C72.3346 4.85353 72.3346 4.84029 72.3213 4.82705C72.1889 4.61516 72.03 4.45624 71.871 4.29732C71.7519 4.17813 71.6327 4.05894 71.54 3.92651C71.3148 3.59543 71.1162 3.26434 70.9175 2.90678C70.7586 2.64191 70.5997 2.35056 70.4275 2.08569L70.3613 1.97975C70.1759 1.6884 69.9773 1.38381 69.6859 1.14543L69.5932 1.06597C69.1959 0.73489 68.8119 0.430295 68.4675 0.403809C68.4675 0.403809 68.3483 0.403804 68.2556 0.456777C68.1762 0.50975 68.1364 0.615699 68.1232 0.642185C67.9908 1.27786 67.8319 1.90029 67.3286 2.31083C67.2094 2.40353 67.0902 2.49624 66.971 2.58894C66.64 2.82732 66.2691 3.10543 66.0175 3.50272C65.6467 3.21137 65.2362 2.97299 64.9051 2.84056C64.9051 2.84056 64.7727 2.78759 64.6667 2.84056C64.5873 2.88029 64.5608 2.90678 64.521 2.98624C64.4283 3.18489 63.7794 4.2311 63.6337 4.42975C63.3689 4.77407 63.0775 4.97272 62.614 5.22434C62.2829 5.40975 62.0975 5.64813 61.8989 5.88651C61.8062 6.0057 61.7135 6.12488 61.5943 6.21759C61.5148 6.29705 61.4354 6.37651 61.3427 6.44272C61.091 6.66786 60.8394 6.90624 60.6275 7.19759C60.3229 7.35651 59.9654 7.59489 59.6608 7.85975C59.5681 7.93921 59.4754 8.03192 59.3827 8.12462C59.1443 8.34975 58.9324 8.56164 58.6543 8.6411C58.4954 8.68083 58.4027 8.853 58.4556 9.01192C58.4954 9.14435 58.6146 9.22381 58.7337 9.22381C58.7602 9.22381 58.7867 9.22381 58.8132 9.21057C59.237 9.09138 59.5416 8.80002 59.7932 8.5484C59.8727 8.46894 59.9654 8.38948 60.0448 8.31002C60.3627 8.03191 60.7467 7.78029 61.0381 7.64786C61.8724 7.27705 62.7332 7.50219 63.6337 7.72732L63.8059 7.76705C63.9781 7.80678 64.1502 7.91272 64.3224 8.00543C64.6402 8.19083 65.011 8.40273 65.4878 8.34975C65.66 8.33651 65.8321 8.29678 66.0043 8.25705C66.1764 8.21732 66.3354 8.19083 66.4943 8.17759C66.8121 8.1511 67.1962 8.20407 67.5405 8.07164C67.6464 8.03191 67.7259 7.92597 67.7259 7.80678C67.7524 7.15786 67.4213 6.93272 67.0902 6.72083C67.0373 6.69434 66.9975 6.65461 66.9313 6.61488L66.8916 6.5884C66.7724 6.50894 66.6135 6.40299 66.587 6.31029C66.5737 6.28381 66.587 6.21759 66.587 6.15137C66.6002 5.99245 66.64 5.74083 66.4148 5.52894C66.2559 5.38326 66.0573 5.35678 65.8983 5.33029C65.8189 5.31705 65.6997 5.30381 65.6732 5.27732C65.66 5.26408 65.6202 5.19786 65.6864 4.89326L65.6997 4.85354C65.7659 4.52245 65.7659 4.42975 65.607 4.09867C65.5673 4.00597 65.554 3.93975 65.5408 3.84705C65.7792 4.03246 65.991 4.21786 66.1367 4.40326C66.2559 4.56218 66.3751 4.76084 66.481 4.97273C66.64 5.26408 66.7989 5.58191 67.0505 5.82029C67.3551 6.11164 67.6862 6.13813 67.951 6.15137C68.1364 6.16461 68.2689 6.16462 68.4013 6.24408C68.4808 6.29705 68.547 6.41624 68.6264 6.53543C68.6794 6.62813 68.7324 6.70759 68.7986 6.78705C68.9708 7.01218 69.2886 7.30354 69.6462 7.46246C69.9375 7.58164 70.0964 7.64786 70.3348 7.82002C70.6394 8.03192 70.9837 8.20408 71.2883 8.32327C71.4473 8.37624 71.6062 8.29678 71.6591 8.13786C71.7121 7.97894 71.6327 7.82002 71.4737 7.76705C71.2221 7.67435 70.9308 7.52867 70.6659 7.34326C70.3746 7.14461 70.1759 7.05191 69.8581 6.91948C69.7256 6.8665 69.58 6.76057 69.4475 6.62813C69.421 6.42948 69.4343 6.21759 69.4608 6.0057C69.4873 5.82029 69.5137 5.62164 69.5005 5.42299C69.4873 5.06543 69.3018 4.82705 69.1694 4.6284C69.0767 4.49597 68.984 4.37678 68.9443 4.2311C68.931 4.16488 68.9443 4.11191 69.037 3.96624C69.0767 3.91326 69.1032 3.84705 69.1297 3.79408C69.2621 3.52921 69.3548 3.2511 69.4078 2.95975C69.4873 2.49624 69.4343 2.00624 69.2356 1.51624L69.3018 1.56921C69.527 1.75462 69.6859 2.00624 69.8581 2.2711L69.9243 2.37705C70.0964 2.64191 70.2554 2.90678 70.401 3.17164C70.5997 3.51597 70.8116 3.88678 71.05 4.2311C71.1691 4.40326 71.3148 4.54894 71.4473 4.68137C71.5929 4.82705 71.7254 4.94624 71.8181 5.10516C71.871 5.18462 71.9108 5.29056 71.9637 5.38326C71.9637 5.39651 71.977 5.39651 71.977 5.40975C71.977 5.40975 71.977 5.40975 71.977 5.42299C72.0167 5.5157 72.0697 5.6084 72.1094 5.70111C72.5862 6.52219 72.9173 6.65462 73.8178 7.03867C74.1754 7.19759 74.6521 7.4757 74.9037 7.63462C75.1818 7.80678 75.6983 7.93921 76.1089 8.03191C76.2413 8.0584 76.3737 8.09813 76.4532 8.12462C76.5856 8.16435 76.7313 8.09813 76.7975 7.97894C77.1948 7.22407 76.3473 6.76056 75.6719 6.37651C75.2878 6.16462 74.8508 5.92624 74.7316 5.70111C74.5064 5.30381 74.4137 4.95948 74.4667 4.6284C74.48 4.65488 74.4932 4.66813 74.4932 4.69461C74.5462 4.78732 74.5859 4.88002 74.6256 4.93299C74.7978 5.18461 74.97 5.44948 75.2613 5.66137L75.354 5.72759C75.5791 5.91299 75.844 6.11165 76.1354 6.23084C76.2943 6.28381 76.4532 6.32353 76.6121 6.35002C76.7578 6.37651 76.9035 6.40299 77.0227 6.45596C77.3537 6.5884 77.5921 6.89299 77.8437 7.23732C78.2675 7.83326 78.6516 7.9657 79.274 8.16435C79.7905 8.32326 81.34 9.1311 81.5386 9.30326C81.5916 9.36948 81.6843 9.40921 81.7637 9.40921C81.8167 9.40921 81.8829 9.39597 81.9359 9.35624C82.0683 9.27678 82.1081 9.09137 82.0154 8.95894Z" fill="white"/>
<path d="M192.438 15.6203C190.067 15.6203 189.153 16.1633 188.928 18.1365H185.088H180.611C180.797 15.713 181.605 13.8192 183.114 12.4552C181.671 10.7336 179.512 9.83301 176.797 9.83301C173.923 9.83301 171.46 11.1971 169.315 13.8987C167.951 11.2103 165.527 9.83301 162.058 9.83301C159.462 9.83301 157.263 11.0646 155.436 13.4881V10.3892H147.225V33.949H155.621V20.8911C155.621 18.2027 156.985 16.9711 158.998 16.9711C161.183 16.9711 161.965 18.163 161.965 20.4806V33.949H170.361V20.8911C170.361 18.2027 171.725 16.9711 173.738 16.9711C175.923 16.9711 176.705 18.163 176.705 20.4806V33.949H184.425C181.353 32.9425 179.38 30.5587 179.38 27.1419C179.38 23.6722 181.075 21.4341 185.114 20.3879C186.173 20.1098 187.392 19.9111 188.782 19.7919L192.57 19.4741C194.53 19.2887 195.404 18.7457 195.404 17.5141C195.404 16.256 194.398 15.6203 192.438 15.6203Z" fill="white"/>
<path d="M237.862 1.42383H229.969V7.99248H237.862V1.42383Z" fill="white"/>
<path d="M238.087 10.3628H229.691V33.9225H238.087V10.3628Z" fill="white"/>
<path d="M256.588 9.81934C253.582 9.81934 251.105 11.051 249.238 13.4745V10.3756H241.027V33.9353H249.423V20.8774C249.423 18.2685 251.065 16.9574 253.118 16.9574C255.264 16.9574 256.31 18.1493 256.31 20.4669V33.9353H264.706V18.6658C264.706 12.8785 261.329 9.81934 256.588 9.81934Z" fill="white"/>
<path d="M291.96 23.0493C291.96 18.9439 290.821 15.6993 288.491 13.3288C286.16 10.998 283.101 9.81934 279.313 9.81934C275.526 9.81934 272.466 10.9583 270.188 13.1964C267.858 15.4345 266.719 18.4407 266.719 22.1488C266.719 25.8437 267.911 28.8631 270.228 31.1012C272.559 33.3393 275.618 34.4783 279.406 34.4783C282.372 34.4783 284.928 33.7896 287.166 32.3726C289.351 30.9555 290.768 28.9955 291.417 26.4793H283.564C282.743 27.8434 281.379 28.532 279.406 28.532C276.81 28.532 275.247 27.2077 274.704 24.5591H291.96V23.0493ZM274.704 19.5796C275.208 17.0237 276.717 15.7391 279.22 15.7391C281.776 15.7391 283.326 17.0237 283.882 19.5796H274.704Z" fill="white"/>
<path d="M227.095 10.363H217.692L209.799 19.2227V1.42383H201.628V12.2833C202.953 13.4884 203.628 15.1306 203.628 17.2098V29.6717C203.628 31.6317 203.946 33.0487 204.582 33.9227H209.799V28.3076L212.634 25.3014L218.024 33.9227H227.559L218.288 19.6863L227.095 10.363Z" fill="white"/>
<path d="M14.1173 1.7417C19.7059 1.7417 23.9173 3.19846 26.6851 6.09873C29.453 8.999 30.8568 12.9455 30.8568 17.8985C30.8568 22.8514 29.453 26.7979 26.6851 29.6982C23.9173 32.5985 19.6927 34.0552 14.1173 34.0552H0V1.7417H14.1173ZM13.9319 26.4271C18.9246 26.4271 21.4143 23.5666 21.4143 17.8985C21.4143 12.2303 18.9246 9.3698 13.9319 9.3698H9.07162V26.4271H13.9319Z" fill="white"/>
<path d="M48.1524 34.0547C47.7949 33.2866 47.6095 32.5053 47.5565 31.6445C45.9673 33.5912 43.5173 34.5977 40.1138 34.5977C35.0814 34.5977 31.4924 31.8696 31.4924 27.2874C31.4924 22.9304 34.1676 20.5202 40.8422 19.9772L44.6032 19.6593C46.55 19.4739 47.4108 18.931 47.4108 17.7126C47.4108 16.4942 46.4176 15.8585 44.4576 15.8585C42.1003 15.8585 41.1865 16.4015 40.9614 18.3483H32.6976C33.1081 12.8523 36.7765 10.0845 44.537 10.0845C51.887 10.0845 55.5686 12.5345 55.5686 17.4345V29.8301C55.5686 31.7769 55.8865 33.1939 56.5222 34.0547H48.1524ZM47.4241 24.8374V23.4734C47.0665 23.9766 46.3778 24.2415 45.3316 24.3872L42.6565 24.6653C40.8819 24.8507 39.9814 25.6188 39.9814 26.9828C39.9814 28.3866 41.1203 29.2474 42.9743 29.2474C45.9276 29.2342 47.4241 27.7907 47.4241 24.8374Z" fill="white"/>
<path d="M73.328 10.6279H81.4991V33.4063C81.4991 39.763 76.9566 43.4844 69.1034 43.4844C61.5282 43.4844 57.4891 39.9882 57.3037 34.5054H65.5145C65.6072 36.4125 66.8785 37.366 69.3285 37.366C71.8712 37.366 73.1426 35.9622 73.1426 33.7373V30.1087C71.7388 32.1481 69.6464 33.1546 66.8785 33.1546C63.8326 33.1546 61.3826 32.0687 59.5285 29.8836C57.6745 27.7514 56.7209 24.9836 56.7209 21.58C56.7209 18.1765 57.6347 15.4087 59.4491 13.2765C61.2634 11.1444 63.6737 10.0981 66.7064 10.0981C69.6993 10.0981 71.9242 11.2371 73.328 13.5017V10.6279ZM69.2093 26.6125C71.9374 26.6125 73.2882 24.9306 73.2882 21.58C73.2882 18.2692 71.9242 16.6271 69.2093 16.6271C66.5342 16.6271 65.1304 18.4414 65.1304 21.7522C65.1172 24.9703 66.4812 26.6125 69.2093 26.6125Z" fill="white"/>
<path d="M84.3994 34.0552V1.7417H92.7559V34.0552H84.3994Z" fill="white"/>
<path d="M111.177 34.0547C110.819 33.2866 110.634 32.5053 110.581 31.6445C108.992 33.5912 106.542 34.5977 103.138 34.5977C98.1058 34.5977 94.5168 31.8696 94.5168 27.2874C94.5168 22.9304 97.192 20.5202 103.867 19.9772L107.628 19.6593C109.574 19.4739 110.435 18.931 110.435 17.7126C110.435 16.4942 109.442 15.8585 107.482 15.8585C105.125 15.8585 104.211 16.4015 103.986 18.3483H95.7485C96.159 12.8523 99.8274 10.0845 107.588 10.0845C114.938 10.0845 118.62 12.5345 118.62 17.4345V29.8301C118.62 31.7769 118.937 33.1939 119.573 34.0547H111.177ZM110.448 24.8374V23.4734C110.091 23.9766 109.402 24.2415 108.356 24.3872L105.681 24.6653C103.906 24.8507 103.006 25.6188 103.006 26.9828C103.006 28.3866 104.145 29.2474 105.999 29.2474C108.952 29.2342 110.448 27.7907 110.448 24.8374Z" fill="white"/>
<path d="M137.266 10.4025V17.8849H135.094C131.333 17.8849 129.466 19.9243 129.466 24.0562V34.0416H121.109V10.6276H129.28V15.2627C130.102 11.9519 132.181 10.27 135.584 10.27C136.233 10.27 136.776 10.3097 137.266 10.4025Z" fill="white"/>
<path d="M196.053 27.1552L195.55 26.9963C195.484 26.9698 195.431 26.9169 195.431 26.8374C195.431 26.7844 195.417 26.7182 195.417 26.6652C195.404 26.599 195.444 26.5328 195.51 26.4931L195.987 26.2282C196.053 26.1885 196.093 26.109 196.066 26.0296C196.027 25.8839 195.987 25.7382 195.934 25.5925C195.907 25.5131 195.828 25.4734 195.749 25.4866L195.219 25.5528C195.153 25.5661 195.073 25.5263 195.047 25.4601C195.02 25.4071 194.98 25.3409 194.954 25.2879C194.914 25.2217 194.927 25.1555 194.967 25.0893L195.285 24.6523C195.338 24.5861 195.325 24.5066 195.285 24.4404C195.192 24.3212 195.1 24.2152 194.994 24.1093C194.941 24.0563 194.848 24.0431 194.782 24.0828L194.318 24.3477C194.252 24.3874 194.173 24.3742 194.12 24.3344C194.067 24.2947 194 24.2417 193.947 24.202C193.894 24.1623 193.855 24.0961 193.881 24.0166L194 23.4869C194.014 23.4074 193.987 23.3279 193.908 23.3015C193.775 23.2352 193.643 23.169 193.51 23.1161C193.431 23.0896 193.351 23.1161 193.312 23.1823L193.007 23.6193C192.967 23.6723 192.888 23.6988 192.822 23.6855C192.756 23.6723 192.676 23.6458 192.597 23.6325C192.53 23.6193 192.464 23.5663 192.451 23.5001L192.345 22.9704C192.332 22.8909 192.266 22.838 192.186 22.8247C192.12 22.8247 192.04 22.8247 191.961 22.8247C191.881 22.8247 191.815 22.8247 191.736 22.8247C191.656 22.8247 191.59 22.8909 191.577 22.9704L191.471 23.5001C191.458 23.5663 191.405 23.6193 191.325 23.6325C191.246 23.6458 191.18 23.659 191.1 23.6855C191.034 23.6988 190.954 23.6723 190.915 23.6193L190.61 23.1823C190.57 23.1161 190.478 23.0896 190.411 23.1161C190.279 23.169 190.133 23.2352 190.014 23.3015C189.948 23.3412 189.908 23.4207 189.921 23.4869L190.041 24.0166C190.054 24.0828 190.027 24.1623 189.974 24.202C189.921 24.2417 189.855 24.2815 189.802 24.3344C189.749 24.3742 189.67 24.3874 189.604 24.3477L189.14 24.0828C189.074 24.0431 188.981 24.0563 188.928 24.1093C188.822 24.2152 188.73 24.3344 188.637 24.4404C188.584 24.5066 188.584 24.5861 188.637 24.6523L188.955 25.0893C188.994 25.1423 188.994 25.2217 188.968 25.2879C188.928 25.3409 188.902 25.4071 188.875 25.4601C188.836 25.5263 188.769 25.5661 188.703 25.5528L188.173 25.4866C188.094 25.4734 188.014 25.5263 187.988 25.5925C187.935 25.7382 187.895 25.8839 187.856 26.0296C187.842 26.109 187.869 26.1885 187.935 26.2282L188.412 26.4931C188.478 26.5328 188.504 26.599 188.504 26.6652C188.504 26.7182 188.491 26.7844 188.491 26.8374C188.491 26.9036 188.438 26.9698 188.372 26.9963L187.869 27.1552C187.789 27.1817 187.736 27.248 187.75 27.3274C187.763 27.4863 187.776 27.6452 187.803 27.7909C187.816 27.8704 187.882 27.9234 187.961 27.9366L188.504 27.9896C188.571 28.0028 188.637 28.0425 188.65 28.1088C188.663 28.1617 188.677 28.2015 188.703 28.2544C188.73 28.3207 188.716 28.4001 188.65 28.4398L188.253 28.7974C188.187 28.8504 188.173 28.9431 188.213 29.0093C188.293 29.155 188.372 29.2874 188.465 29.4198C188.504 29.4861 188.584 29.5125 188.663 29.4861L189.18 29.3139C189.246 29.2874 189.326 29.3139 189.365 29.3669C189.392 29.4066 189.431 29.4331 189.458 29.4596C189.511 29.5125 189.524 29.592 189.498 29.6582L189.273 30.1482C189.246 30.2144 189.259 30.3071 189.326 30.3601C189.458 30.4661 189.59 30.5588 189.723 30.6382C189.789 30.678 189.869 30.6779 189.935 30.625L190.332 30.2542C190.385 30.2012 190.464 30.2012 190.517 30.2277C190.557 30.2409 190.597 30.2674 190.623 30.2807C190.69 30.3071 190.729 30.3734 190.729 30.4396V30.9825C190.729 31.062 190.782 31.1282 190.862 31.1547C191.021 31.1944 191.18 31.2342 191.339 31.2607C191.418 31.2739 191.497 31.2342 191.524 31.1547L191.736 30.6515C191.762 30.5852 191.829 30.5455 191.895 30.5455C191.908 30.5455 191.934 30.5455 191.948 30.5455C191.961 30.5455 191.987 30.5455 192.001 30.5455C192.067 30.5455 192.133 30.5852 192.16 30.6515L192.371 31.1547C192.398 31.2209 192.477 31.2739 192.557 31.2607C192.716 31.2342 192.888 31.2077 193.034 31.1547C193.113 31.1282 193.166 31.062 193.166 30.9825V30.4396C193.166 30.3734 193.206 30.3071 193.272 30.2807C193.312 30.2674 193.351 30.2542 193.378 30.2277C193.444 30.2012 193.524 30.2144 193.563 30.2542L193.961 30.625C194.014 30.6779 194.106 30.6912 194.173 30.6382C194.305 30.5455 194.437 30.4528 194.57 30.3601C194.636 30.3071 194.649 30.2277 194.623 30.1482L194.398 29.6582C194.371 29.592 194.384 29.5125 194.437 29.4596C194.464 29.4331 194.504 29.3934 194.53 29.3669C194.583 29.3139 194.649 29.3007 194.716 29.3139L195.232 29.4861C195.311 29.5125 195.391 29.4861 195.431 29.4198C195.523 29.2874 195.603 29.155 195.682 29.0093C195.722 28.9431 195.709 28.8504 195.643 28.7974L195.245 28.4398C195.192 28.3869 195.179 28.3207 195.192 28.2544C195.206 28.2015 195.232 28.1617 195.245 28.1088C195.272 28.0425 195.325 27.9896 195.391 27.9896L195.934 27.9366C196.013 27.9234 196.08 27.8704 196.093 27.7909C196.119 27.632 196.133 27.4863 196.146 27.3274C196.186 27.248 196.133 27.1685 196.053 27.1552ZM191.948 28.8107C190.968 28.8107 190.173 28.0161 190.173 27.0361C190.173 26.0561 190.968 25.2615 191.948 25.2615C192.928 25.2615 193.722 26.0561 193.722 27.0361C193.722 28.0161 192.928 28.8107 191.948 28.8107Z" fill="white"/>
<path d="M191.02 38.0015H191.14L190.305 40.2396H190.173L189.617 38.5709C189.577 38.465 189.524 38.3193 189.484 38.1339C189.405 38.3723 189.365 38.5179 189.352 38.5709L188.796 40.2396H188.663L187.829 38.0015H187.948L188.517 39.5112C188.584 39.6701 188.65 39.8688 188.729 40.1071C188.769 39.9747 188.835 39.7761 188.915 39.5112L189.418 38.0015H189.55L190.054 39.5112C190.093 39.6436 190.16 39.8423 190.239 40.1071C190.332 39.8423 190.398 39.6436 190.451 39.5112L191.02 38.0015Z" fill="white"/>
<path d="M197.059 38.0015H197.192L196.358 40.2396H196.225L195.669 38.5709C195.629 38.465 195.576 38.3193 195.537 38.1339C195.457 38.3723 195.417 38.5179 195.404 38.5709L194.848 40.2396H194.715L193.881 38.0015H194L194.57 39.5112C194.636 39.6701 194.702 39.8688 194.782 40.1071C194.821 39.9747 194.888 39.7761 194.967 39.5112L195.47 38.0015H195.603L196.106 39.5112C196.146 39.6436 196.212 39.8423 196.291 40.1071C196.384 39.8423 196.45 39.6436 196.503 39.5112L197.059 38.0015Z" fill="white"/>
<path d="M203.099 38.0015H203.231L202.397 40.2396H202.264L201.708 38.5709C201.668 38.465 201.615 38.3193 201.576 38.1339C201.496 38.3723 201.456 38.5179 201.443 38.5709L200.887 40.2396H200.754L199.92 38.0015H200.039L200.609 39.5112C200.675 39.6701 200.741 39.8688 200.821 40.1071C200.86 39.9747 200.927 39.7761 201.006 39.5112L201.509 38.0015H201.642L202.145 39.5112C202.185 39.6436 202.251 39.8423 202.33 40.1071C202.423 39.8423 202.489 39.6436 202.542 39.5112L203.099 38.0015Z" fill="white"/>
<path d="M205.76 40.2256V40.001H205.985V40.2256H205.76Z" fill="white"/>
<path d="M210.621 37.1538H210.74V40.2395H210.621V39.6568C210.475 40.0541 210.17 40.2925 209.747 40.2925C209.442 40.2925 209.204 40.1865 209.031 39.9746C208.859 39.7627 208.767 39.4846 208.767 39.127C208.767 38.7827 208.859 38.4914 209.031 38.2795C209.204 38.0676 209.442 37.9616 209.747 37.9616C210.17 37.9616 210.475 38.2 210.621 38.5841V37.1538ZM210.396 39.8819C210.541 39.6833 210.621 39.4316 210.621 39.1138C210.621 38.796 210.541 38.5311 210.396 38.3457C210.237 38.1471 210.025 38.0543 209.76 38.0543C209.495 38.0543 209.283 38.1603 209.124 38.3457C208.965 38.5443 208.886 38.796 208.886 39.1138C208.886 39.4316 208.965 39.6833 209.124 39.8819C209.283 40.0806 209.495 40.1733 209.76 40.1733C210.025 40.1733 210.237 40.0806 210.396 39.8819Z" fill="white"/>
<path d="M215.772 40.1338V40.2397C215.732 40.2397 215.693 40.253 215.666 40.253C215.454 40.253 215.362 40.147 215.362 39.9219V39.7365C215.216 40.1073 214.911 40.2927 214.448 40.2927C213.998 40.2927 213.733 40.0411 213.733 39.6703C213.733 39.2995 213.958 39.0876 214.501 39.0214L214.872 38.9684C215.269 38.9154 215.362 38.7962 215.362 38.5446C215.362 38.2268 215.136 38.0679 214.699 38.0679C214.183 38.0679 213.958 38.2533 213.945 38.6638H213.825C213.839 38.2003 214.103 37.9619 214.686 37.9619C215.216 37.9619 215.468 38.1871 215.468 38.5446V39.9219C215.468 40.0808 215.534 40.147 215.679 40.147C215.706 40.1338 215.759 40.1338 215.772 40.1338ZM215.348 39.2995V38.8625C215.282 38.9684 215.123 39.0346 214.872 39.0611L214.501 39.1141C214.05 39.1671 213.839 39.3392 213.839 39.657C213.839 39.9749 214.05 40.1868 214.435 40.1868C214.991 40.1735 215.348 39.8822 215.348 39.2995Z" fill="white"/>
<path d="M220.275 38.0017H220.394V40.1471C220.394 40.8093 220.103 41.1403 219.454 41.1403C218.95 41.1403 218.672 40.8755 218.619 40.4782H218.739C218.792 40.8225 219.017 41.0344 219.454 41.0344C220.023 41.0344 220.262 40.7563 220.262 40.1471V39.6704C220.116 40.0544 219.825 40.2795 219.414 40.2795C219.109 40.2795 218.884 40.1736 218.712 39.9617C218.54 39.7498 218.46 39.4717 218.46 39.1141C218.46 38.7698 218.54 38.4785 218.712 38.2666C218.884 38.0547 219.109 37.9487 219.414 37.9487C219.825 37.9487 220.116 38.1871 220.262 38.5712V38.0017H220.275ZM220.05 39.8822C220.195 39.6836 220.275 39.432 220.275 39.1141C220.275 38.7963 220.195 38.5447 220.05 38.346C219.904 38.1474 219.692 38.0547 219.44 38.0547C218.911 38.0547 218.606 38.4785 218.606 39.1141C218.606 39.432 218.686 39.6836 218.831 39.8822C218.977 40.0809 219.189 40.1736 219.44 40.1736C219.692 40.1736 219.891 40.0809 220.05 39.8822Z" fill="white"/>
<path d="M223.506 40.2263V37.1406H223.626V40.2263H223.506Z" fill="white"/>
<path d="M228.671 40.1338V40.2397C228.631 40.2397 228.592 40.253 228.565 40.253C228.353 40.253 228.261 40.147 228.261 39.9219V39.7365C228.115 40.1073 227.81 40.2927 227.347 40.2927C226.896 40.2927 226.632 40.0411 226.632 39.6703C226.632 39.2995 226.857 39.0876 227.4 39.0214L227.771 38.9684C228.168 38.9154 228.261 38.7962 228.261 38.5446C228.261 38.2268 228.035 38.0679 227.598 38.0679C227.082 38.0679 226.857 38.2533 226.843 38.6638H226.724C226.738 38.2003 227.002 37.9619 227.585 37.9619C228.115 37.9619 228.366 38.1871 228.366 38.5446V39.9219C228.366 40.0808 228.433 40.147 228.578 40.147C228.592 40.1338 228.658 40.1338 228.671 40.1338ZM228.247 39.2995V38.8625C228.181 38.9684 228.022 39.0346 227.771 39.0611L227.4 39.1141C226.949 39.1671 226.738 39.3392 226.738 39.657C226.738 39.9749 226.949 40.1868 227.333 40.1868C227.876 40.1735 228.247 39.8822 228.247 39.2995Z" fill="white"/>
<path d="M232.644 37.9752V38.0812H232.512C231.969 38.0812 231.677 38.452 231.677 38.9949V40.2133H231.558V37.9752H231.677V38.5447C231.783 38.2136 232.061 37.9487 232.512 37.9487C232.565 37.9752 232.604 37.9752 232.644 37.9752Z" fill="white"/>
<path d="M238.696 38.7959V40.2261H238.577V38.8091C238.577 38.3059 238.339 38.041 237.928 38.041C237.518 38.041 237.2 38.3456 237.187 38.9945V40.2261H237.068V38.8091C237.068 38.3059 236.829 38.041 236.419 38.041C236.008 38.041 235.69 38.3456 235.69 38.9945V40.2261H235.571V37.988H235.69V38.531C235.796 38.1602 236.074 37.9351 236.445 37.9351C236.856 37.9351 237.107 38.1602 237.187 38.5575C237.293 38.1734 237.571 37.9351 237.955 37.9351C238.418 37.9483 238.696 38.2661 238.696 38.7959Z" fill="white"/>
<path d="M243.729 40.1338V40.2397C243.689 40.2397 243.649 40.253 243.623 40.253C243.411 40.253 243.318 40.147 243.318 39.9219V39.7365C243.172 40.1073 242.868 40.2927 242.404 40.2927C241.954 40.2927 241.689 40.0411 241.689 39.6703C241.689 39.2995 241.914 39.0876 242.457 39.0214L242.828 38.9684C243.225 38.9154 243.318 38.7962 243.318 38.5446C243.318 38.2268 243.093 38.0679 242.656 38.0679C242.139 38.0679 241.914 38.2533 241.901 38.6638H241.782C241.795 38.2003 242.06 37.9619 242.643 37.9619C243.172 37.9619 243.424 38.1871 243.424 38.5446V39.9219C243.424 40.0808 243.49 40.147 243.636 40.147C243.649 40.1338 243.702 40.1338 243.729 40.1338ZM243.305 39.2995V38.8625C243.239 38.9684 243.08 39.0346 242.828 39.0611L242.457 39.1141C242.007 39.1671 241.795 39.3392 241.795 39.657C241.795 39.9749 242.007 40.1868 242.391 40.1868C242.934 40.1735 243.305 39.8822 243.305 39.2995Z" fill="white"/>
<path d="M248.205 40.2263L247.252 38.902L246.709 39.392V40.2263H246.589V37.1406H246.709V39.2463L248.112 37.9882H248.271L247.331 38.8225L248.337 40.2131H248.205V40.2263Z" fill="white"/>
<path d="M251.211 37.657V37.2729H251.344V37.657H251.211ZM251.224 40.2262V37.9881H251.344V40.2262H251.224Z" fill="white"/>
<path d="M256.164 38.7963V40.2266H256.045V38.8095C256.045 38.3063 255.793 38.0414 255.343 38.0414C254.906 38.0414 254.575 38.3593 254.575 38.9817V40.2266H254.456V37.9885H254.575V38.5314C254.694 38.1606 254.985 37.9487 255.369 37.9487C255.873 37.9487 256.164 38.2533 256.164 38.7963Z" fill="white"/>
<path d="M261.13 39.1406H259.303C259.316 39.7631 259.621 40.1736 260.164 40.1736C260.574 40.1736 260.879 39.9087 260.958 39.4717H261.077C260.998 39.9617 260.654 40.2795 260.164 40.2795C259.846 40.2795 259.607 40.1736 259.435 39.9617C259.263 39.7498 259.17 39.4585 259.17 39.1141C259.17 38.7698 259.263 38.4785 259.422 38.2666C259.594 38.0547 259.833 37.9487 260.137 37.9487C260.442 37.9487 260.693 38.0547 260.852 38.2666C261.024 38.4785 261.104 38.7566 261.104 39.1009V39.1406H261.13ZM259.303 39.0347H260.998C260.971 38.452 260.68 38.0547 260.15 38.0547C259.647 38.0547 259.343 38.4387 259.303 39.0347Z" fill="white"/>
<path d="M263.911 40.2256V40.001H264.136V40.2256H263.911Z" fill="white"/>
<path d="M267.182 39.9613C267.01 39.7494 266.917 39.4713 266.917 39.1137C266.917 38.7561 267.01 38.4648 267.182 38.2529C267.355 38.041 267.593 37.9351 267.897 37.9351C268.387 37.9351 268.719 38.2529 268.785 38.6899H268.666C268.599 38.3059 268.295 38.041 267.897 38.041C267.381 38.041 267.037 38.4383 267.037 39.1005C267.037 39.7626 267.368 40.1599 267.897 40.1599C268.096 40.1599 268.282 40.0937 268.427 39.9613C268.573 39.8288 268.652 39.6567 268.692 39.458H268.811C268.785 39.6832 268.692 39.8818 268.52 40.0407C268.348 40.1997 268.149 40.2791 267.911 40.2791C267.593 40.2791 267.355 40.1732 267.182 39.9613Z" fill="white"/>
<path d="M272.678 40.2795C272.374 40.2795 272.135 40.1736 271.963 39.9617C271.778 39.7498 271.685 39.4585 271.685 39.1141C271.685 38.7698 271.778 38.4917 271.963 38.2666C272.135 38.0547 272.387 37.9487 272.678 37.9487C272.983 37.9487 273.221 38.0547 273.407 38.2666C273.579 38.4785 273.672 38.7698 273.672 39.1141C273.672 39.4585 273.579 39.7366 273.407 39.9617C273.208 40.1736 272.97 40.2795 272.678 40.2795ZM272.678 40.1736C272.943 40.1736 273.155 40.0676 273.314 39.8822C273.473 39.6836 273.552 39.432 273.552 39.1141C273.552 38.7963 273.473 38.5447 273.314 38.346C273.155 38.1474 272.943 38.0547 272.678 38.0547C272.413 38.0547 272.202 38.1606 272.043 38.346C271.884 38.5447 271.804 38.7963 271.804 39.1141C271.804 39.432 271.884 39.6836 272.043 39.8822C272.202 40.0809 272.413 40.1736 272.678 40.1736Z" fill="white"/>
<path d="M279.817 38.7959V40.2261H279.697V38.8091C279.697 38.3059 279.459 38.041 279.048 38.041C278.638 38.041 278.32 38.3456 278.307 38.9945V40.2261H278.188V38.8091C278.188 38.3059 277.949 38.041 277.539 38.041C277.128 38.041 276.81 38.3456 276.81 38.9945V40.2261H276.691V37.988H276.81V38.531C276.916 38.1602 277.194 37.9351 277.565 37.9351C277.976 37.9351 278.227 38.1602 278.307 38.5575C278.413 38.1734 278.691 37.9351 279.075 37.9351C279.538 37.9483 279.817 38.2661 279.817 38.7959Z" fill="white"/>
<path d="M282.862 40.2256V40.001H283.087V40.2256H282.862Z" fill="white"/>
<path d="M286.822 38.1073H286.226V39.7892C286.226 40.0276 286.359 40.1467 286.61 40.1467C286.663 40.1467 286.743 40.1468 286.822 40.1335V40.2394C286.729 40.2394 286.663 40.2527 286.61 40.2527C286.279 40.2527 286.12 40.107 286.12 39.8024V38.1205H285.723V38.0146H286.12V37.3789H286.239V38.0146H286.835V38.1073H286.822Z" fill="white"/>
<path d="M290.861 37.9752V38.0812H290.729C290.186 38.0812 289.895 38.452 289.895 38.9949V40.2133H289.775V37.9752H289.895V38.5447C290.001 38.2136 290.279 37.9487 290.729 37.9487C290.769 37.9752 290.822 37.9752 290.861 37.9752Z" fill="white"/>
<path d="M293.483 11.0511C293.828 11.3954 294 11.806 294 12.296C294 12.786 293.828 13.1965 293.483 13.5276C293.139 13.8719 292.702 14.0308 292.199 14.0308C291.695 14.0308 291.272 13.8587 290.927 13.5276C290.583 13.1833 290.411 12.786 290.411 12.296C290.411 11.806 290.583 11.3954 290.927 11.0511C291.272 10.7068 291.709 10.5479 292.199 10.5479C292.715 10.5479 293.139 10.72 293.483 11.0511ZM293.205 13.2627C293.47 12.9979 293.603 12.68 293.603 12.296C293.603 11.9119 293.47 11.5808 293.205 11.316C292.94 11.0511 292.609 10.9187 292.199 10.9187C291.801 10.9187 291.47 11.0511 291.205 11.316C290.941 11.5808 290.808 11.9119 290.808 12.296C290.808 12.68 290.941 12.9979 291.205 13.2627C291.47 13.5276 291.801 13.66 292.199 13.66C292.609 13.66 292.94 13.5276 293.205 13.2627ZM292.954 12.9316C292.967 13.0376 292.98 13.117 293.033 13.1833H292.609C292.57 13.1303 292.556 13.0508 292.543 12.9316L292.53 12.7462C292.503 12.5741 292.464 12.5079 292.305 12.5079H291.921V13.1833H291.51V11.3822H292.331C292.728 11.3822 292.98 11.5676 292.98 11.8987C292.98 12.0973 292.901 12.243 292.728 12.3092C292.861 12.3754 292.927 12.4946 292.94 12.68L292.954 12.9316ZM291.907 12.1635H292.291C292.45 12.1635 292.543 12.0841 292.543 11.9384C292.543 11.7927 292.464 11.7265 292.278 11.7265H291.907V12.1635Z" fill="white"/>
</svg>
